<svg xmlns="http://www.w3.org/2000/svg" width="40.454" height="38.004" viewBox="0 0 40.454 38.004">
  <path id="Fill_1" data-name="Fill 1" d="M27.818,38a12.529,12.529,0,0,1-7.589-2.538A12.635,12.635,0,1,1,7.642,13.76c-.034-.394-.051-.763-.051-1.125a12.639,12.639,0,0,1,25.278,0c0,.367-.017.735-.051,1.127a12.636,12.636,0,0,1-5,24.24Zm4.689-22.371a12.723,12.723,0,0,1-7.28,8.607c.034.4.051.766.051,1.127a12.561,12.561,0,0,1-3.639,8.863,10.8,10.8,0,1,0,10.868-18.6h0Zm-24.56,0v0h0a10.8,10.8,0,1,0,10.872,18.6,12.571,12.571,0,0,1-3.639-8.863c0-.368.017-.735.051-1.125a12.728,12.728,0,0,1-7.281-8.61Zm9.082,9.233h0c-.011.177-.012.354-.012.5a10.73,10.73,0,0,0,3.21,7.69,10.731,10.731,0,0,0,3.21-7.69c0-.168,0-.338-.012-.505a12.636,12.636,0,0,1-6.4,0Zm3.2-7.189a10.751,10.751,0,0,0-2.957,5.352,10.932,10.932,0,0,0,5.914,0,10.749,10.749,0,0,0-2.957-5.35Zm-7.591-3.109-.027,0a10.777,10.777,0,0,0-2.929.4,10.865,10.865,0,0,0,5.858,7.4,12.617,12.617,0,0,1,3.279-5.868A10.744,10.744,0,0,0,12.636,14.567Zm15.18,0A10.763,10.763,0,0,0,21.639,16.5a12.672,12.672,0,0,1,3.279,5.868,10.871,10.871,0,0,0,5.858-7.393A10.839,10.839,0,0,0,27.816,14.567ZM12.634,12.731a12.524,12.524,0,0,1,7.593,2.541,12.612,12.612,0,0,1,10.791-2.128c.007-.155.012-.321.012-.506a10.8,10.8,0,0,0-21.6,0c0,.169,0,.334.012.5A12.65,12.65,0,0,1,12.634,12.731Z" fill="#fff"/>
</svg>
