<svg id="BASF_Icon_-_world" data-name="BASF Icon - world" xmlns="http://www.w3.org/2000/svg" width="19.992" height="20" viewBox="0 0 19.992 20">
  <defs>
    <style>
      .cls-1 {
        fill: #fff;
      }
    </style>
  </defs>
  <g id="Group_63" data-name="Group 63">
    <path id="Path_107" data-name="Path 107" class="cls-1" d="M128.715,29.308l-.3.1-1.6.143-.451.722-.324-.105-1.272-1.144-.181-.594-.248-.632-.8-.715-.941-.181-.023.429.918.9.451.534-.5.263-.414-.12-.617-.256.023-.5-.813-.331-.271,1.174-.805.173.083.655,1.068.2.181-1.046.88.128.406.241h.655l.451.9,1.189,1.2-.09.467-.963-.113-1.655.835-1.2,1.43-.158.632h-.429l-.8-.369-.775.369.2.82.339-.391.594-.015-.038.737.489.143.489.549.8-.226.918.143,1.061.286.534.06.9,1.023,1.738,1.023L126.292,41l-1.189.549-.451,1.226-1.716,1.144-.181.662a9.988,9.988,0,0,0,5.959-15.275Z" transform="translate(-110.416 -24.876)"/>
    <path id="Path_108" data-name="Path 108" class="cls-1" d="M11.144,74.221l-.73-1.347.67-1.392-.67-.2-.752-.752L8,70.151,7.449,69v.685H7.208l-1.43-1.941v-1.6L4.725,64.44l-1.67.3H1.934l-.564-.369.722-.572-.722.166a9.943,9.943,0,0,0,9.88,14.944L11.144,77.7s.459-1.8.459-1.859S11.144,74.221,11.144,74.221Z" transform="translate(0 -58.999)"/>
    <path id="Path_109" data-name="Path 109" class="cls-1" d="M31.83,3.22l1.776-.241.82-.451.918.263,1.475-.083.5-.79.737.12,1.783-.166.489-.542.692-.467.978.15.361-.053A9.956,9.956,0,0,0,30.4,3.634h.008Zm6.7-2.227L39.55.429,40.2.805l-.948.722-.9.09-.406-.263Zm-3.025.083.451.188.587-.188.324.557-1.362.361-.655-.384S35.494,1.2,35.509,1.076Z" transform="translate(-28.113)"/>
  </g>
</svg>
