<svg xmlns="http://www.w3.org/2000/svg" width="33.623" height="32.051" viewBox="0 0 33.623 32.051">
  <path id="Fill_1" data-name="Fill 1" d="M6.885,32.051a.748.748,0,0,1-.712-.979L9.8,19.917.308,13.024a.748.748,0,0,1,.44-1.354H12.475L16.1.518a.747.747,0,0,1,1.422,0L21.148,11.67H32.872a.748.748,0,0,1,.442,1.354l-9.49,6.893L27.45,31.071a.749.749,0,0,1-.712.978.762.762,0,0,1-.44-.141l-9.488-6.9-9.486,6.9A.746.746,0,0,1,6.885,32.051Zm9.925-8.71a.75.75,0,0,1,.44.143l8.065,5.86-3.08-9.479a.75.75,0,0,1,.27-.839l8.063-5.858H20.6a.749.749,0,0,1-.712-.518L16.81,3.171l-3.08,9.479a.749.749,0,0,1-.712.516H3.052l8.063,5.858a.752.752,0,0,1,.272.837l-3.08,9.479,8.063-5.858A.75.75,0,0,1,16.81,23.341Z" fill="#fff"/>
</svg>
