<svg xmlns="http://www.w3.org/2000/svg" width="74" height="74" viewBox="0 0 74 74">
  <g id="Gruppe_245" data-name="Gruppe 245" transform="translate(-1087 -1767)">
    <circle id="Oval" cx="37" cy="37" r="37" transform="translate(1087 1767)" fill="#858585"/>
    <g id="Group_9" data-name="Group 9" transform="translate(1107.552 1785.138)">
      <path id="Fill_1" data-name="Fill 1" d="M28.019,18.3a4.022,4.022,0,0,1-3.958-3.429H13.678a4,4,0,0,1-7.914,0H.571A.572.572,0,0,1,0,14.295V9.722A2.868,2.868,0,0,1,2.859,6.861H5.481L12.175.167A.577.577,0,0,1,12.58,0H26.3a.575.575,0,0,1,.4.167l6.7,6.694h.333a1.718,1.718,0,0,1,1.715,1.717v5.717a.568.568,0,0,1-.571.573h-2.9A4.019,4.019,0,0,1,28.019,18.3Zm0-6.86a2.859,2.859,0,1,0,1.093.217A2.841,2.841,0,0,0,28.019,11.437Zm-18.3,0a2.859,2.859,0,1,0,1.093.217A2.841,2.841,0,0,0,9.722,11.437Zm18.3-1.142a4.021,4.021,0,0,1,3.958,3.429h2.332V8.578A.568.568,0,0,0,33.738,8h-.571a.569.569,0,0,1-.405-.167L26.068,1.144H12.818L11.674,2.288H18.3a.577.577,0,0,1,.405.167.566.566,0,0,1,.165.4V7.434a.566.566,0,0,1-.165.4A.576.576,0,0,1,18.3,8H2.861A1.718,1.718,0,0,0,1.146,9.722v1.715H2.861a.575.575,0,0,1,.4.167.56.56,0,0,1,.167.4v1.717H5.766a4,4,0,0,1,7.914,0H24.063A4.018,4.018,0,0,1,28.019,10.294ZM1.144,12.58v1.144H2.288V12.58Zm9.387-9.149h0L7.1,6.861H17.726V3.431Z" transform="translate(0 17.154)" fill="#fff"/>
      <path id="Fill_2" data-name="Fill 2" d="M2.563,5.123a2.561,2.561,0,1,1,.98-.195A2.553,2.553,0,0,1,2.563,5.123Zm0-3.415a.854.854,0,1,0,0,1.707.854.854,0,1,0,0-1.707Z" transform="translate(8.005 29.734)" fill="#fff"/>
      <path id="Fill_3" data-name="Fill 3" d="M2.563,5.123a2.561,2.561,0,1,1,.98-.195A2.553,2.553,0,0,1,2.563,5.123Zm0-3.415a.854.854,0,1,0,0,1.707.854.854,0,1,0,0-1.707Z" transform="translate(26.303 29.734)" fill="#fff"/>
      <path id="Fill_4" data-name="Fill 4" d="M9.722,5.717H.571a.566.566,0,0,1-.4-.165A.577.577,0,0,1,0,5.146V.571A.572.572,0,0,1,.571,0H5.146a.577.577,0,0,1,.405.167l4.573,4.573a.571.571,0,0,1,.123.623A.563.563,0,0,1,9.722,5.717ZM1.144,1.144V4.575h7.2L4.908,1.144H1.144Z" transform="translate(20.013 19.441)" fill="#fff"/>
      <path id="Fill_5" data-name="Fill 5" d="M0,1.144H2.287V0H0Z" transform="translate(16.583 26.303)" fill="#fff"/>
      <path id="Fill_6" data-name="Fill 6" d="M7.434,17.153a1.718,1.718,0,0,1-1.717-1.715V13.151a.571.571,0,1,0-1.142,0v.573a1.716,1.716,0,0,1-3.431,0V10.292H.571A.572.572,0,0,1,0,9.722V.571A.572.572,0,0,1,.571,0H12.007a1.718,1.718,0,0,1,1.717,1.715V2.859H30.877a.577.577,0,0,1,.405.167L33,4.741a.574.574,0,0,1,0,.811L31.283,7.266a.577.577,0,0,1-.405.167H13.724V8.578a1.718,1.718,0,0,1-1.717,1.715H9.149v5.146A1.717,1.717,0,0,1,7.434,17.153ZM5.146,11.436a1.717,1.717,0,0,1,1.715,1.715v2.288a.572.572,0,0,0,1.144,0V10.292H2.288v3.431a.572.572,0,0,0,1.144,0v-.573A1.717,1.717,0,0,1,5.146,11.436ZM10.292,1.144v8h1.715a.572.572,0,0,0,.573-.571V1.715a.572.572,0,0,0-.573-.571ZM1.144,8V9.149h8v-8h-8V2.288H6.861V3.429H1.144V4.573H6.861V5.717H1.144V6.861H6.861V8Zm12.58-4V6.29H30.639l1.144-1.144L30.639,4H13.724Z" transform="translate(1.144 0)" fill="#fff"/>
      <path id="Fill_7" data-name="Fill 7" d="M2.863,5.725a.575.575,0,0,1-.545-.393A3.071,3.071,0,0,0,.393,3.407a.572.572,0,0,1,0-1.087A3.078,3.078,0,0,0,2.318.4.571.571,0,0,1,3.405.4,3.044,3.044,0,0,0,5.33,2.32a.571.571,0,0,1,0,1.087A3.078,3.078,0,0,0,3.405,5.332.57.57,0,0,1,2.863,5.725Zm0-3.893A4.2,4.2,0,0,1,1.834,2.863,4.159,4.159,0,0,1,2.863,3.893,4.161,4.161,0,0,1,3.893,2.863,4.243,4.243,0,0,1,2.863,1.832Z" transform="translate(28.586 13.148)" fill="#fff"/>
      <path id="Fill_8" data-name="Fill 8" d="M2.863,5.725a.575.575,0,0,1-.545-.393A3.071,3.071,0,0,0,.393,3.407a.572.572,0,0,1,0-1.087A3.078,3.078,0,0,0,2.318.4.571.571,0,0,1,3.405.4,3.044,3.044,0,0,0,5.33,2.32a.571.571,0,0,1,0,1.087A3.078,3.078,0,0,0,3.405,5.332.57.57,0,0,1,2.863,5.725Zm0-3.893A4.2,4.2,0,0,1,1.834,2.863,4.159,4.159,0,0,1,2.863,3.893,4.161,4.161,0,0,1,3.893,2.863,4.243,4.243,0,0,1,2.863,1.832Z" transform="translate(17.15 8.574)" fill="#fff"/>
    </g>
  </g>
</svg>
