<svg xmlns="http://www.w3.org/2000/svg" width="119.998" height="43.336" viewBox="0 0 119.998 43.336">
  <g id="Group_356" data-name="Group 356" transform="translate(-1669.001 -273.675)">
    <g id="Group_232" data-name="Group 232" transform="translate(1669.001 273.675)">
      <g id="Group_231" data-name="Group 231" transform="translate(0 0.643)">
        <path id="Path_246" data-name="Path 246" d="M35.436,35.439v21.5h21.5v-21.5ZM50.317,50.32H42.05V42.052h8.267Z" transform="translate(-35.436 -35.439)" fill="#fff"/>
        <rect id="Rectangle_37" data-name="Rectangle 37" width="8.268" height="8.268" transform="translate(28.109 6.614)" fill="#fff"/>
      </g>
      <path id="Path_247" data-name="Path 247" d="M111.6,35.439h11.976c4.4,0,6.4,2.931,6.4,5.61,0,1.929-.742,3.176-2.732,4.334,2.511.928,3.875,2.6,3.875,5.184,0,3.088-2.243,6.366-7.531,6.366h-12Zm6.54,16.641h4.334A2.078,2.078,0,0,0,124.708,50a1.864,1.864,0,0,0-2.018-1.781h-4.553Zm.016-8.178h3.483c1.592,0,2.227-.741,2.227-1.829a1.6,1.6,0,0,0-1.77-1.654h-3.939Z" transform="translate(-68.607 -34.796)" fill="#fff"/>
      <path id="Path_248" data-name="Path 248" d="M152.155,35.439h6.924l7.887,21.468h-7.107l-1.041-3.215h-6.634l-.882,3.2h-7.053Zm3.181,6.371-1.828,7.169h3.908Z" transform="translate(-82.831 -34.796)" fill="#fff"/>
      <path id="Path_249" data-name="Path 249" d="M194.483,41.328h6.6c0-3.646-2.743-7.028-9.251-7.028-7.138,0-9.348,3.939-9.348,6.823,0,4.649,5.69,5.885,5.866,5.94.849.268,4.381,1.214,5.263,1.529a2.006,2.006,0,0,1,1.495,1.7c0,1.255-1.495,1.858-2.739,1.858-.8,0-3.485-.265-3.485-3.111h-6.822c0,3.78,2.6,8.01,9.9,8.01,8.052,0,9.736-4.8,9.736-7.356a5.921,5.921,0,0,0-3.906-5.5c-1.639-.662-4.357-1.242-5.721-1.64-.687-.2-2.98-.666-2.98-2.065,0-1.792,2.954-1.56,2.522-1.56C192.949,38.932,194.483,39.684,194.483,41.328Z" transform="translate(-99.302 -34.3)" fill="#fff"/>
      <path id="Path_250" data-name="Path 250" d="M218.81,35.431h16.481V41.1h-9.9v3.782h8.824v5.421h-8.855v6.618h-6.587Z" transform="translate(-115.293 -34.792)" fill="#fff"/>
    </g>
    <g id="Group_233" data-name="Group 233" transform="translate(1669.017 305.047)">
      <path id="Path_251" data-name="Path 251" d="M44.026,97.654l-.007-.026-2.061-7.744H40.665l-2.093,7.771H38.49l-.006-.028-1.825-7.743H35.464l2.376,9.269h1.24L41.239,91.3h.08l.007.026,2.125,7.823h1.241l2.48-9.269H46l-1.9,7.771Z" transform="translate(-35.464 -89.883)" fill="#fff"/>
      <path id="Path_252" data-name="Path 252" d="M61.628,95.475a2.946,2.946,0,0,0-.944-.937,2.754,2.754,0,0,0-1.479-.368,3.056,3.056,0,0,0-1.262.259,2.986,2.986,0,0,0-.995.724,3.35,3.35,0,0,0-.654,1.1,4.041,4.041,0,0,0-.234,1.4,5.472,5.472,0,0,0,.226,1.416,3.094,3.094,0,0,0,.6,1.111,2.723,2.723,0,0,0,.988.724,3.445,3.445,0,0,0,1.391.26,3.053,3.053,0,0,0,1.889-.57,2.662,2.662,0,0,0,.959-1.65H61.092a1.611,1.611,0,0,1-.6.988,1.969,1.969,0,0,1-1.179.334,2.347,2.347,0,0,1-.97-.186,1.913,1.913,0,0,1-.679-.5,1.948,1.948,0,0,1-.387-.718,2.729,2.729,0,0,1-.107-.855v-.036h5.064a5.44,5.44,0,0,0-.111-1.252,3.758,3.758,0,0,0-.493-1.245m-4.463,1.586,0-.038a2.387,2.387,0,0,1,.173-.751,2.023,2.023,0,0,1,.4-.619,1.82,1.82,0,0,1,.607-.42,1.98,1.98,0,0,1,.792-.154,1.943,1.943,0,0,1,.779.154,1.976,1.976,0,0,1,.614.413,1.936,1.936,0,0,1,.413.619,2.343,2.343,0,0,1,.179.757l0,.038Z" transform="translate(-44.436 -91.75)" fill="#fff"/>
      <path id="Path_253" data-name="Path 253" d="M78.427,100.266a1.882,1.882,0,0,1-.921-.214,1.8,1.8,0,0,1-.627-.566,2.528,2.528,0,0,1-.352-.8,3.839,3.839,0,0,1-.112-.925,4.678,4.678,0,0,1,.1-1,2.541,2.541,0,0,1,.352-.856,1.84,1.84,0,0,1,.66-.6,2.119,2.119,0,0,1,1.024-.226,1.588,1.588,0,0,1,1.7,1.347h1.081a2.6,2.6,0,0,0-.305-.986,2.274,2.274,0,0,0-.624-.715,2.6,2.6,0,0,0-.878-.42,4.051,4.051,0,0,0-1.07-.137,3.239,3.239,0,0,0-1.384.279,2.76,2.76,0,0,0-.988.761,3.275,3.275,0,0,0-.59,1.138,4.989,4.989,0,0,0-.194,1.41,4.518,4.518,0,0,0,.2,1.382,3.018,3.018,0,0,0,.6,1.08,2.63,2.63,0,0,0,.981.7,3.508,3.508,0,0,0,1.353.245,2.921,2.921,0,0,0,2.023-.671,3.074,3.074,0,0,0,.918-1.873H80.317a1.984,1.984,0,0,1-.576,1.206,1.865,1.865,0,0,1-1.313.441" transform="translate(-52.82 -91.75)" fill="#fff"/>
      <path id="Path_254" data-name="Path 254" d="M90.516,94.53a3.058,3.058,0,0,0-1.029,1.2l-.01.02H89.44V94.326h-.975v6.692h1.041V98.044a4.7,4.7,0,0,1,.131-1.166,2.25,2.25,0,0,1,.426-.87,1.839,1.839,0,0,1,.773-.549,3.183,3.183,0,0,1,1.116-.186V94.169c-.026,0-.051,0-.076,0a2.417,2.417,0,0,0-1.361.363" transform="translate(-58.55 -91.749)" fill="#fff"/>
      <path id="Path_255" data-name="Path 255" d="M100.415,95.475a2.941,2.941,0,0,0-.944-.937,2.753,2.753,0,0,0-1.479-.368,3.054,3.054,0,0,0-1.261.259,2.983,2.983,0,0,0-1,.724,3.36,3.36,0,0,0-.654,1.1,4.054,4.054,0,0,0-.233,1.4,5.448,5.448,0,0,0,.226,1.416,3.084,3.084,0,0,0,.6,1.111,2.733,2.733,0,0,0,.988.724,3.446,3.446,0,0,0,1.391.26,3.053,3.053,0,0,0,1.889-.57,2.665,2.665,0,0,0,.959-1.65H99.879a1.612,1.612,0,0,1-.6.988,1.969,1.969,0,0,1-1.179.334,2.344,2.344,0,0,1-.97-.186,1.9,1.9,0,0,1-.679-.5,1.94,1.94,0,0,1-.387-.718,2.729,2.729,0,0,1-.107-.855v-.036h5.064a5.409,5.409,0,0,0-.111-1.252,3.734,3.734,0,0,0-.493-1.245m-4.463,1.586,0-.038a2.4,2.4,0,0,1,.173-.751,2.033,2.033,0,0,1,.4-.619,1.825,1.825,0,0,1,.607-.42,1.981,1.981,0,0,1,.792-.154,1.945,1.945,0,0,1,.779.154,1.976,1.976,0,0,1,.614.413,1.934,1.934,0,0,1,.413.619,2.344,2.344,0,0,1,.179.757l0,.038Z" transform="translate(-61.33 -91.75)" fill="#fff"/>
      <path id="Path_256" data-name="Path 256" d="M113.383,100.056a2.649,2.649,0,0,1-.046-.584v-3.48a1.8,1.8,0,0,0-.218-.938,1.539,1.539,0,0,0-.575-.556,2.384,2.384,0,0,0-.8-.264,5.468,5.468,0,0,0-1.969.052,2.619,2.619,0,0,0-.891.381,1.968,1.968,0,0,0-.617.687,2.347,2.347,0,0,0-.255,1.008h1.041a1.162,1.162,0,0,1,.525-1.01,2.413,2.413,0,0,1,1.2-.272,3.763,3.763,0,0,1,.535.039,1.47,1.47,0,0,1,.5.162.97.97,0,0,1,.366.352,1.149,1.149,0,0,1,.143.608.64.64,0,0,1-.2.5A1.228,1.228,0,0,1,111.6,97a4.969,4.969,0,0,1-.731.133c-.271.029-.562.075-.867.136-.285.052-.567.117-.841.2a2.341,2.341,0,0,0-.722.341,1.689,1.689,0,0,0-.506.583,1.961,1.961,0,0,0-.192.925,1.931,1.931,0,0,0,.174.855,1.536,1.536,0,0,0,.474.574,1.932,1.932,0,0,0,.7.323,3.682,3.682,0,0,0,.855.1,3.517,3.517,0,0,0,1.3-.238,2.649,2.649,0,0,0,1.052-.781l.063-.077v.1a1.024,1.024,0,0,0,.244.765.921.921,0,0,0,.663.232,1.583,1.583,0,0,0,.763-.155v-.794a1.056,1.056,0,0,1-.3.052q-.29,0-.343-.211M112.3,98.7a1.3,1.3,0,0,1-.12.517,1.541,1.541,0,0,1-.375.51,2.037,2.037,0,0,1-.652.386,2.7,2.7,0,0,1-.955.152,2.3,2.3,0,0,1-.5-.053,1.216,1.216,0,0,1-.431-.176.961.961,0,0,1-.3-.318.947.947,0,0,1-.116-.483,1.084,1.084,0,0,1,.2-.682,1.266,1.266,0,0,1,.505-.383,2.767,2.767,0,0,1,.689-.192c.239-.038.493-.073.754-.1s.488-.071.71-.117a1.369,1.369,0,0,0,.535-.223l.058-.043Z" transform="translate(-66.946 -91.751)" fill="#fff"/>
      <path id="Path_257" data-name="Path 257" d="M132.765,95.475a2.942,2.942,0,0,0-.944-.937,2.759,2.759,0,0,0-1.479-.368,3.054,3.054,0,0,0-1.261.259,2.979,2.979,0,0,0-1,.724,3.349,3.349,0,0,0-.654,1.1,4.067,4.067,0,0,0-.233,1.4,5.388,5.388,0,0,0,.226,1.416,3.082,3.082,0,0,0,.6,1.111,2.757,2.757,0,0,0,.988.724,3.447,3.447,0,0,0,1.392.26,3.05,3.05,0,0,0,1.888-.57,2.668,2.668,0,0,0,.96-1.65h-1.027a1.615,1.615,0,0,1-.6.988,1.966,1.966,0,0,1-1.179.334,2.35,2.35,0,0,1-.97-.186,1.908,1.908,0,0,1-.679-.5,1.933,1.933,0,0,1-.386-.718,2.716,2.716,0,0,1-.106-.855v-.036h5.064a5.41,5.41,0,0,0-.112-1.252,3.764,3.764,0,0,0-.491-1.245m-4.44,1.586,0-.038a2.335,2.335,0,0,1,.173-.751,1.983,1.983,0,0,1,.4-.619,1.823,1.823,0,0,1,.607-.42,1.98,1.98,0,0,1,.792-.154,1.925,1.925,0,0,1,1.806,1.185,2.339,2.339,0,0,1,.18.757l0,.038Z" transform="translate(-75.421 -91.75)" fill="#fff"/>
      <path id="Path_258" data-name="Path 258" d="M149.59,100.266a1.878,1.878,0,0,1-.919-.214,1.809,1.809,0,0,1-.628-.566,2.524,2.524,0,0,1-.353-.8,3.879,3.879,0,0,1-.111-.925,4.623,4.623,0,0,1,.106-1,2.537,2.537,0,0,1,.351-.855,1.852,1.852,0,0,1,.66-.6,2.116,2.116,0,0,1,1.025-.226,1.589,1.589,0,0,1,1.7,1.347h1.083a2.636,2.636,0,0,0-.305-.987,2.3,2.3,0,0,0-.625-.714,2.625,2.625,0,0,0-.878-.42,4.051,4.051,0,0,0-1.07-.137,3.235,3.235,0,0,0-1.383.279,2.745,2.745,0,0,0-.988.761,3.256,3.256,0,0,0-.59,1.138,5,5,0,0,0-.194,1.41,4.531,4.531,0,0,0,.2,1.382,3.044,3.044,0,0,0,.594,1.08,2.65,2.65,0,0,0,.982.7,3.517,3.517,0,0,0,1.352.245,2.921,2.921,0,0,0,2.025-.671,3.073,3.073,0,0,0,.917-1.873h-1.065a1.966,1.966,0,0,1-.576,1.206,1.86,1.86,0,0,1-1.313.441" transform="translate(-83.816 -91.75)" fill="#fff"/>
      <path id="Path_259" data-name="Path 259" d="M164.717,92.985a1.8,1.8,0,0,0-.706-.5,2.916,2.916,0,0,0-1.1-.181,3.113,3.113,0,0,0-.615.065,2.681,2.681,0,0,0-.606.2,2.044,2.044,0,0,0-.52.347,1.55,1.55,0,0,0-.4.517l-.008.023h-.05V89.883h-1.041v9.269h1.041V95.368a2.771,2.771,0,0,1,.126-.855,1.974,1.974,0,0,1,.379-.686,1.716,1.716,0,0,1,.634-.455,2.33,2.33,0,0,1,.9-.159,1.4,1.4,0,0,1,1.033.377,1.378,1.378,0,0,1,.376,1.019v4.543h1.042V94.741a4.2,4.2,0,0,0-.11-.993,1.862,1.862,0,0,0-.379-.763" transform="translate(-89.567 -89.883)" fill="#fff"/>
      <path id="Path_260" data-name="Path 260" d="M177.543,95.475a2.929,2.929,0,0,0-.944-.937,2.755,2.755,0,0,0-1.479-.368,3.054,3.054,0,0,0-1.261.259,2.985,2.985,0,0,0-1,.724,3.388,3.388,0,0,0-.654,1.1,4.052,4.052,0,0,0-.233,1.4,5.429,5.429,0,0,0,.226,1.416,3.1,3.1,0,0,0,.6,1.111,2.739,2.739,0,0,0,.988.724,3.446,3.446,0,0,0,1.391.26,3.051,3.051,0,0,0,1.888-.57,2.662,2.662,0,0,0,.96-1.65h-1.026a1.61,1.61,0,0,1-.6.988,1.968,1.968,0,0,1-1.179.334,2.351,2.351,0,0,1-.97-.186,1.908,1.908,0,0,1-.679-.5,1.94,1.94,0,0,1-.386-.718,2.7,2.7,0,0,1-.107-.855v-.036h5.064a5.372,5.372,0,0,0-.113-1.252,3.753,3.753,0,0,0-.492-1.245m-4.464,1.586,0-.038a2.351,2.351,0,0,1,.173-.751,1.979,1.979,0,0,1,.4-.619,1.84,1.84,0,0,1,.607-.42,1.971,1.971,0,0,1,.792-.154,1.928,1.928,0,0,1,1.806,1.185,2.373,2.373,0,0,1,.179.757l0,.038Z" transform="translate(-94.924 -91.75)" fill="#fff"/>
      <path id="Path_261" data-name="Path 261" d="M194.083,94.62a1.877,1.877,0,0,0-.693-.34,3.543,3.543,0,0,0-.913-.11,2.52,2.52,0,0,0-1.207.3,2.355,2.355,0,0,0-.882.837l-.041.066-.025-.073a1.433,1.433,0,0,0-.7-.869,2.432,2.432,0,0,0-1.122-.258,2.5,2.5,0,0,0-2.194,1.136l-.011.016h-.041v-.995h-.975v6.692h1.041V96.842a1.656,1.656,0,0,1,.1-.5,1.958,1.958,0,0,1,.32-.58,1.911,1.911,0,0,1,.574-.48,1.69,1.69,0,0,1,.848-.2,1.535,1.535,0,0,1,.636.114.971.971,0,0,1,.4.327,1.3,1.3,0,0,1,.209.49,2.881,2.881,0,0,1,.059.609v4.4h1.042V96.842a1.736,1.736,0,0,1,.48-1.28,1.792,1.792,0,0,1,1.321-.481,1.636,1.636,0,0,1,.674.12,1.019,1.019,0,0,1,.415.333,1.248,1.248,0,0,1,.2.491,3.109,3.109,0,0,1,.054.6v4.4h1.041V96.1a2.212,2.212,0,0,0-.161-.883,1.554,1.554,0,0,0-.448-.593" transform="translate(-100.718 -91.75)" fill="#fff"/>
      <path id="Path_262" data-name="Path 262" d="M206.223,91.173h-1.041v-1.29h1.041Zm0,1.287h-1.041v6.692h1.041Z" transform="translate(-109.387 -89.883)" fill="#fff"/>
      <path id="Path_263" data-name="Path 263" d="M214.374,100.724a1.97,1.97,0,0,0,.655-.643,1.858,1.858,0,0,0,.25-1,1.58,1.58,0,0,0-.185-.792,1.68,1.68,0,0,0-.488-.532,2.618,2.618,0,0,0-.7-.343,8.418,8.418,0,0,0-.814-.221q-.392-.091-.785-.176a4.778,4.778,0,0,1-.712-.211,1.677,1.677,0,0,1-.527-.321.666.666,0,0,1-.214-.505.7.7,0,0,1,.138-.448.975.975,0,0,1,.353-.271,1.722,1.722,0,0,1,.474-.141,2.856,2.856,0,0,1,1.061.021,1.692,1.692,0,0,1,.5.192,1.147,1.147,0,0,1,.378.358,1.179,1.179,0,0,1,.173.528h1.041a2.434,2.434,0,0,0-.255-.975,1.737,1.737,0,0,0-.584-.64,2.415,2.415,0,0,0-.844-.336,5.389,5.389,0,0,0-1.053-.1,3.74,3.74,0,0,0-.887.11,2.713,2.713,0,0,0-.8.336,1.893,1.893,0,0,0-.578.585,1.6,1.6,0,0,0-.222.858,1.443,1.443,0,0,0,.318,1,2.143,2.143,0,0,0,.8.561,5.49,5.49,0,0,0,1.059.312c.379.073.739.157,1.068.249a2.8,2.8,0,0,1,.827.364.779.779,0,0,1,.343.684.853.853,0,0,1-.165.54,1.015,1.015,0,0,1-.413.318,2.019,2.019,0,0,1-.539.146,3.6,3.6,0,0,1-1.221-.026,1.867,1.867,0,0,1-.586-.221,1.237,1.237,0,0,1-.426-.417,1.289,1.289,0,0,1-.173-.606h-1.04a2.382,2.382,0,0,0,.256,1.014,1.931,1.931,0,0,0,.617.695,2.621,2.621,0,0,0,.89.379,5.091,5.091,0,0,0,2.084.02,2.762,2.762,0,0,0,.918-.341" transform="translate(-111.315 -91.75)" fill="#fff"/>
      <path id="Path_264" data-name="Path 264" d="M222.989,90.856h-1.042v2.028h-1.11v.909h1.11v4.341a2.533,2.533,0,0,0,.091.747.9.9,0,0,0,.271.428,1.048,1.048,0,0,0,.48.208,3.934,3.934,0,0,0,.732.059h.816v-.91h-.475a4.014,4.014,0,0,1-.43-.019.585.585,0,0,1-.271-.092.348.348,0,0,1-.138-.2,1.22,1.22,0,0,1-.034-.324V93.793h1.388v-.909h-1.388Z" transform="translate(-116.206 -90.307)" fill="#fff"/>
      <path id="Path_265" data-name="Path 265" d="M121.784,90.856h-1.042v2.028h-1.11v.909h1.11v4.341a2.514,2.514,0,0,0,.091.747.883.883,0,0,0,.27.428,1.045,1.045,0,0,0,.481.208,3.926,3.926,0,0,0,.732.059h.815v-.91h-.475a4.01,4.01,0,0,1-.43-.019.588.588,0,0,1-.271-.092.353.353,0,0,1-.138-.2,1.223,1.223,0,0,1-.033-.324V93.793h1.388v-.909h-1.388Z" transform="translate(-72.125 -90.307)" fill="#fff"/>
      <path id="Path_266" data-name="Path 266" d="M230.894,95.876l-.01.019h-.037V94.389h-.975v6.692h1.04V98.188a4.643,4.643,0,0,1,.133-1.167,2.276,2.276,0,0,1,.425-.87,1.839,1.839,0,0,1,.773-.548,3.193,3.193,0,0,1,1.115-.186V94.312a2.459,2.459,0,0,0-1.435.362,3.075,3.075,0,0,0-1.03,1.2" transform="translate(-120.142 -91.812)" fill="#fff"/>
      <path id="Path_267" data-name="Path 267" d="M239.893,102.887a7,7,0,0,0,.383-.834l2.925-7.6h-1.1l-1.9,5.534h-.076l-.009-.025-1.968-5.509h-1.176l2.667,6.689-.005.012-.459,1.138a1.344,1.344,0,0,1-.376.473.926.926,0,0,1-.572.164,1.129,1.129,0,0,1-.346-.054l-.273-.089v.946a1.815,1.815,0,0,0,.349.082,2.976,2.976,0,0,0,.388.025,1.951,1.951,0,0,0,.641-.095,1.41,1.41,0,0,0,.492-.306,2.291,2.291,0,0,0,.412-.547" transform="translate(-123.235 -91.872)" fill="#fff"/>
    </g>
  </g>
</svg>
